<svg id="Layer_1" data-name="Layer 1" xmlns="http://www.w3.org/2000/svg" viewBox="0 0 980 977.91"><defs><style>.cls-1{fill:#fff;}</style></defs><path class="cls-1" d="M1450,518v44a58.5,58.5,0,0,0-.86,5.85,463.77,463.77,0,0,1-19.73,112.35Q1379.13,843.58,1239,941.65c-68.44,47.89-144.6,75.89-227.77,84.57q-13.1,1.37-26.2,2.78H938c-6.6-.62-13.2-1.32-19.82-1.86a475.29,475.29,0,0,1-149.07-36.87q-138-59.07-220.27-184.71-63.71-97.39-76-213.36C471.8,582.14,471,572.05,470,562V518c.28-1.78.62-3.55.84-5.34,2.7-21.79,4.09-43.83,8.28-65.33C500.72,336.47,554.45,243.61,640,170.22,740.58,83.9,858,44.89,990.45,51.88a433.65,433.65,0,0,1,83.85,12.46Q1276,115.48,1383.18,294c35.75,59.65,56.61,124.57,63.93,193.77C1448.18,497.8,1449,507.89,1450,518ZM928.17,448.64l-178.33-7.32a779.73,779.73,0,0,0,4,224.57l174.3-7Zm239-7.35-177.35,7.45V658.83l173.66,7.28C1174.62,607.23,1176.69,477.24,1167.2,441.29Zm191.87,256.15c36.79-96.17,39.61-192.68,9.34-289-23.61,5.17-46.38,10.75-69.38,15-23.17,4.32-46.56,7.36-70.23,11a962.29,962.29,0,0,1,5.66,119.23,934.74,934.74,0,0,1-9.34,119.41C1270.17,678.79,1314.71,685.32,1359.07,697.44ZM559,692.62l134.87-21.29C680.2,593.27,679,514.21,689.74,434.56c-46.93-5.44-93.16-11.91-139.08-23.31Q507.28,554.42,559,692.62ZM989.84,116.24V386.78c56-.69,111.57-2.49,167.64-7.09-2.28-9.74-4.25-18.83-6.54-27.83-13.07-51.37-31.15-100.75-59.23-146-17.54-28.25-38.29-53.7-66.11-72.61C1014.7,125.84,1003.09,119.82,989.84,116.24Zm-61.62.84c-2.75.94-5.24,1.4-7.32,2.57-11.7,6.6-24.07,12.35-34.8,20.29-27.5,20.33-47.58,47.33-64.8,76.5-25.67,43.48-42.84,90.38-55.28,139.12-2,7.95-3.78,16-5.72,24.22,56.41,4.44,112.06,6.26,167.92,7Zm61.6,847.73c9.51-4.45,18.47-8,26.76-12.66,26.64-15.1,46.86-37.1,64.32-61.79,25.59-36.19,43.48-76.18,57.2-118.12,4.8-14.65,8.9-29.53,13.51-44.93-54.46-4.07-108-6.28-161.79-6.48Zm-223-238.5c.49,2.37.63,3.51,1,4.59,6.09,19.35,11.46,39,18.46,58,16.25,44.17,37.48,85.7,68.5,121.59,18.5,21.42,39.73,39.36,66.41,50,2.21.87,4.53,1.45,7,2.24V719.91ZM700.8,374c20.56-86.4,53.91-166.57,111.06-235.61-107.19,41-186.36,112.8-238.33,215.09C586.4,358.67,680.73,373.81,700.8,374ZM1345,350.79c-47.6-92.75-118.17-160.2-212.77-202.49,46.52,68.43,71.62,145.08,87.46,225.43C1262.12,368.4,1303.69,362.38,1345,350.79ZM587.21,749.28l-.32,2.2c52.72,89.66,127.49,153.28,225,190.07-51.21-61.42-83-132.44-104.75-210Zm744.92,3.88c-39.31-9.55-78.4-15.36-118-19.91-16.46,70.84-40.76,138-81.93,198.36C1217.77,893.64,1284,834.21,1332.13,753.16Z" transform="translate(-470 -51.09)"/></svg>